<svg width="32" height="32" viewBox="0 0 32 32" fill="none" xmlns="http://www.w3.org/2000/svg">
  <!-- STT+TTS Icon: Ear with speech bubble -->
  <!-- Ear shape -->
  <path d="M20 8c2.209 0 4 1.791 4 4v4c0 2.209-1.791 4-4 4h-1v2c0 1.105-.895 2-2 2s-2-.895-2-2v-2h-3c-1.105 0-2-.895-2-2s.895-2 2-2h6c1.105 0 2-.895 2-2v-4c0-1.105-.895-2-2-2s-2 .895-2 2v2c0 1.105-.895 2-2 2s-2-.895-2-2v-2c0-3.314 2.686-6 6-6z" fill="#00b760"/>
  
  <!-- Speech bubble -->
  <path d="M8 14c0-1.105.895-2 2-2h4c1.105 0 2 .895 2 2v3c0 1.105-.895 2-2 2h-2l-2 2v-2c-1.105 0-2-.895-2-2v-3z" fill="#00b760" opacity="0.8"/>
  
  <!-- Text lines in speech bubble -->
  <line x1="10" y1="15" x2="14" y2="15" stroke="white" stroke-width="1"/>
  <line x1="10" y1="17" x2="13" y2="17" stroke="white" stroke-width="1"/>
  
  <!-- Conversion arrow -->
  <path d="M16 24l2-2m0 0l2 2m-2-2v4" stroke="#00b760" stroke-width="1.5" fill="none" opacity="0.6"/>
</svg>